<?xml version="1.0" encoding="UTF-8" standalone="no"?>
<!-- Created with Inkscape (http://www.inkscape.org/) -->

<svg
   width="90.746834mm"
   height="38.001129mm"
   viewBox="0 0 90.746834 38.001129"
   version="1.1"
   id="svg5"
   inkscape:version="1.1.1 (1:1.1+202109281949+c3084ef5ed)"
   sodipodi:docname="logo.svg"
   xmlns:inkscape="http://www.inkscape.org/namespaces/inkscape"
   xmlns:sodipodi="http://sodipodi.sourceforge.net/DTD/sodipodi-0.dtd"
   xmlns="http://www.w3.org/2000/svg"
   xmlns:svg="http://www.w3.org/2000/svg">
  <sodipodi:namedview
     id="namedview7"
     pagecolor="#505050"
     bordercolor="#ffffff"
     borderopacity="1"
     inkscape:pageshadow="0"
     inkscape:pageopacity="0"
     inkscape:pagecheckerboard="1"
     inkscape:document-units="mm"
     showgrid="false"
     fit-margin-top="0"
     fit-margin-left="0"
     fit-margin-right="0"
     fit-margin-bottom="0"
     inkscape:zoom="1.8973437"
     inkscape:cx="84.064895"
     inkscape:cy="66.935685"
     inkscape:window-width="1920"
     inkscape:window-height="1025"
     inkscape:window-x="0"
     inkscape:window-y="28"
     inkscape:window-maximized="1"
     inkscape:current-layer="layer1" />
  <defs
     id="defs2" />
  <g
     inkscape:label="Layer 1"
     inkscape:groupmode="layer"
     id="layer1"
     transform="translate(-56.065137,-84.57217)">
    <path
       style="fill:#7604aa;stroke-width:1;fill-opacity:1"
       d="m 72.778192,122.48819 c -4.74882,-0.66279 -9.00675,-2.87924 -11.961807,-6.22667 -2.06458,-2.33872 -3.89628,-5.91639 -4.512714,-8.8142 -0.317604,-1.49304 -0.318162,-5.83141 -9.75e-4,-7.583014 0.685464,-3.78533 2.360087,-6.90805 5.256587,-9.80213 2.937769,-2.93531 5.964229,-4.55083 9.862599,-5.26464 1.66053,-0.30404 5.90296,-0.29954 7.45523,0.008 2.48251,0.49172 5.19035,1.65888 7.27275,3.13479 1.19744,0.84869 4.27917,3.87895 4.49447,4.41941 l 0.15402,0.38661 25.976568,0.0668 c 25.9288,0.0667 28.34789,0.10814 29.28998,0.50177 0.79065,0.33035 0.75685,-0.10283 0.7419,9.508684 -0.0149,9.56146 -0.0551,10.25514 -0.63637,10.9837 l -0.33642,0.42163 -27.43447,0.004 -27.434458,0.004 -1.10971,1.35819 c -2.80408,3.43196 -6.54102,5.65447 -11.08322,6.59163 -1.67664,0.34593 -4.61614,0.49378 -5.99396,0.30148 z m 4.93204,-4.61717 c 4.70057,-0.71726 8.97681,-4.19582 10.91328,-8.87758 1.1906,-2.87847 1.43688,-6.15806 0.68362,-9.103294 -1.3242,-5.17755 -5.97634,-9.57522 -11.39487,-10.77158 -1.23266,-0.27216 -4.0108,-0.2696 -5.42679,0.005 -2.4602,0.4771 -4.56254,1.38221 -6.13204,2.63999 -1.06149,0.85066 -2.68165,2.5037 -3.41244,3.48167 -0.729677,0.97648 -1.709159,3.10243 -2.080576,4.51585 -0.391835,1.491134 -0.532969,4.310394 -0.291083,5.814644 0.957065,5.95184 5.238059,10.67694 11.030299,12.17457 0.93054,0.2406 1.43581,0.28968 3.02807,0.29412 1.07773,0.003 2.42198,-0.0726 3.08253,-0.1734 z m -6.2531,-4.59506 c -0.99917,-0.49754 -1.03269,-2.41527 -0.0511,-2.92288 0.91431,-0.4728 1.93563,-0.0824 2.48186,0.94877 l 0.30825,0.58191 -0.30414,0.57411 c -0.16728,0.31576 -0.47245,0.67675 -0.67816,0.80219 -0.45415,0.27696 -1.21856,0.28387 -1.75672,0.0159 z m 8.01944,0.0332 c -0.64444,-0.28032 -0.85689,-0.80205 -0.79786,-1.95936 0.0113,-0.22164 0.17829,-0.51178 0.45219,-0.78568 0.41459,-0.41459 0.46577,-0.43165 1.12956,-0.3766 0.62129,0.0515 0.74514,0.1111 1.16379,0.55992 0.78692,0.84362 0.78761,1.41959 0.003,2.24473 -0.41498,0.43623 -0.53901,0.49631 -1.01581,0.49207 -0.29872,-0.003 -0.71927,-0.0814 -0.93455,-0.17508 z m -8.85615,-4.21873 c -0.94958,-0.1185 -0.85646,0.0256 -1.71986,-2.66186 -0.44092,-1.37243 -1.20922,-3.82365 -1.70735,-5.44716 -0.49812,-1.623524 -0.95726,-2.964884 -1.0203,-2.980804 -0.063,-0.0159 -0.48966,-0.0653 -0.94803,-0.1098 -0.47642,-0.0462 -0.91215,-0.15957 -1.01724,-0.26465 -0.22456,-0.22457 -0.23984,-0.70603 -0.028,-0.88185 0.0865,-0.0718 1.15636,-0.16883 2.40437,-0.21809 l 2.24854,-0.0888 v 0.83552 0.83552 l 8.34202,-0.0544 8.34203,-0.0544 -0.0823,3.389544 c -0.0453,1.86426 -0.0963,3.40349 -0.11332,3.42053 -0.017,0.017 -3.27614,0.0954 -7.24245,0.17425 -3.96631,0.0788 -7.23218,0.1635 -7.25749,0.18824 -0.0253,0.0247 0.0937,0.39416 0.26443,0.82096 l 0.31045,0.77598 7.04115,0.0318 7.04115,0.0318 v 1.17035 1.17035 l -7.24393,-0.0185 c -3.98416,-0.0102 -7.41039,-0.0392 -7.61384,-0.0646 z m 12.51505,-7.66462 v -1.21278 l -5.39442,0.0485 c -6.09724,0.0548 -7.71624,0.14553 -8.0199,0.44918 -0.18649,0.1865 -0.1792,0.26588 0.0978,1.06469 l 0.29932,0.86316 h 6.5086 6.50861 z m 17.392928,6.154 c 1.7296,-0.10553 2.19764,-0.23786 2.80932,-0.79424 1.17462,-1.06844 0.72432,-3.32988 -0.77628,-3.89853 -0.20011,-0.0758 -1.47628,-0.18941 -2.835918,-0.2524 -3.82888,-0.17737 -4.06845,-0.22208 -3.99332,-0.74524 0.0575,-0.40008 0.33016,-0.43915 3.80856,-0.54566 l 2.952958,-0.0904 v -0.91028 -0.910274 l -1.88034,0.005 c -1.034188,0.003 -2.613478,0.0526 -3.509538,0.11044 -1.84787,0.11921 -2.27714,0.29047 -2.83283,1.130164 -0.63354,0.95735 -0.50215,2.08369 0.34148,2.92731 0.64597,0.64597 1.04094,0.72484 4.4077,0.88013 1.514238,0.0698 2.859758,0.18404 2.990048,0.25377 0.29637,0.15861 0.31009,0.67763 0.0211,0.79836 -0.11868,0.0496 -1.68614,0.11278 -3.483248,0.14045 -1.79712,0.0277 -3.50329,0.0797 -3.79151,0.11555 l -0.52403,0.0652 v 0.91721 0.9172 l 2.31189,-0.006 c 1.27155,-0.003 3.06432,-0.052 3.983958,-0.10807 z m 20.06125,-0.0622 c 1.47664,-0.0702 2.0152,-0.27419 2.43389,-0.92185 0.449,-0.69453 0.58936,-1.62097 0.53545,-3.53406 -0.0435,-1.54503 -0.0791,-1.77359 -0.35368,-2.27264 -0.60096,-1.092274 -1.95443,-1.422624 -5.42227,-1.323464 -3.9741,0.11363 -4.43955,0.542204 -4.43815,4.086504 7.4e-4,1.88667 0.11424,2.51719 0.55932,3.10723 0.48212,0.63916 1.04327,0.82334 2.76912,0.90888 0.84769,0.042 1.79095,0.0614 2.09612,0.043 0.30517,-0.0184 1.12426,-0.0605 1.8202,-0.0936 z m -5.3736,-1.9268 c -0.28468,-0.11416 -0.28575,-0.12317 -0.2466,-2.07836 0.0216,-1.08004 0.0671,-1.98879 0.10097,-2.01943 0.0339,-0.0307 1.54588,-0.095 3.35995,-0.143 l 3.2983,-0.0873 v 2.22918 2.22918 l -3.11335,-0.008 c -1.71234,-0.004 -3.24201,-0.0594 -3.39927,-0.12247 z m 18.64974,1.98285 c 0.17395,-0.0661 0.31628,-0.19662 0.31628,-0.28996 0,-0.0933 -0.29991,-0.66344 -0.66647,-1.26689 l -0.66648,-1.09717 0.41385,-0.43155 c 0.5083,-0.53004 0.76684,-1.12823 0.87113,-2.01558 0.11037,-0.93906 0.0213,-1.18565 -0.76205,-2.10897 l -0.68504,-0.807494 h -4.04226 -4.04226 l -0.0806,1.498974 c -0.12032,2.23771 -0.0973,5.83914 0.0396,6.19931 0.10423,0.27416 0.19338,0.31628 0.66935,0.31628 0.77878,0 0.89472,-0.17136 0.99789,-1.47496 l 0.0882,-1.11436 h 2.26798 c 1.24739,0 2.26798,0.0432 2.26798,0.096 0,0.0528 0.32923,0.60514 0.73162,1.22737 0.59369,0.91803 0.80872,1.15354 1.14054,1.24915 0.5495,0.15834 0.76644,0.16211 1.14069,0.0198 z m -7.57498,-5.22364 v -1.06776 h 3.03867 3.03867 l -0.0708,0.93671 c -0.039,0.51518 -0.094,0.95986 -0.12231,0.98816 -0.0283,0.0283 -1.36383,0.0873 -2.96783,0.13106 l -2.91636,0.0796 z m -17.3428,4.20336 c 0.0436,-0.55948 0.0795,-1.97436 0.0799,-3.14417 l 7.4e-4,-2.12695 h 1.72621 1.72621 v -0.92475 -0.924764 h -4.37719 -4.37718 v 0.924764 0.92475 h 1.70908 1.70908 l 0.0598,3.00191 c 0.0329,1.65104 0.0993,3.06592 0.14771,3.14417 0.0501,0.081 0.39553,0.14227 0.80219,0.14227 h 0.71425 z m 35.00095,0.15969 c 0.0483,-0.43774 0.0583,-0.8254 0.0222,-0.86148 -0.0361,-0.0361 -1.57368,-0.0985 -3.41689,-0.13877 -3.655,-0.0798 -3.90615,-0.12618 -3.90615,-0.72148 0,-0.25997 0.0721,-0.3705 0.27743,-0.42554 0.15258,-0.0409 1.67843,-0.0751 3.39077,-0.076 l 3.11335,-0.002 v -0.92474 -0.92476 l -2.86675,-0.007 c -3.45595,-0.009 -3.83877,-0.0576 -3.89021,-0.49811 -0.0727,-0.62208 0.10292,-0.65725 3.87987,-0.77706 l 3.49669,-0.11092 -0.08,-0.81384 c -0.044,-0.447614 -0.0917,-0.828474 -0.10599,-0.846354 -0.0143,-0.0179 -1.46317,-0.0456 -3.21979,-0.0617 -3.66706,-0.0334 -4.25347,0.0523 -4.92064,0.719464 -0.58386,0.58385 -0.71113,1.29866 -0.65707,3.69024 0.0791,3.49877 0.29145,3.63394 5.65133,3.59725 l 3.14417,-0.0215 0.0878,-0.79589 z"
       id="path854" />
    <path
       style="opacity:0.907436;fill:#ffffff;stroke-width:5.29999;stroke-linejoin:round;stroke-opacity:0.212645;paint-order:stroke fill markers"
       d="m 144.41242,83.932149 c 0,-3.11905 0.022,-3.165738 1.64704,-3.49074 0.90587,-0.181175 5.11571,-0.358471 9.35519,-0.393991 4.23948,-0.03552 10.19846,-0.213402 13.24219,-0.39529 5.30717,-0.317148 5.54129,-0.381817 5.71044,-1.577362 0.097,-0.685661 -0.0483,-1.471326 -0.32288,-1.745923 -0.27459,-0.274596 -5.50093,-0.827919 -11.61407,-1.229606 -12.59464,-0.827577 -14.61569,-1.228616 -16.52922,-3.279909 -1.99403,-2.1376 -2.54279,-3.474066 -2.54279,-6.192799 0,-4.080612 2.22047,-7.063278 6.0611,-8.141639 1.15952,-0.325565 7.50391,-0.741277 14.09866,-0.923806 l 11.99045,-0.33187 v 3.245025 c 0,1.784764 -0.0593,3.257942 -0.13177,3.273728 -0.0725,0.01579 -5.39038,0.234718 -11.81757,0.486511 -11.43469,0.447967 -13.87624,0.859269 -13.87624,2.337584 0,1.653905 1.71804,2.016146 13.03641,2.748667 6.30935,0.408338 12.24497,0.994529 13.19028,1.302646 0.9453,0.308118 2.36834,1.411896 3.16231,2.45284 1.26756,1.661862 1.44358,2.359964 1.44358,5.725512 0,3.621776 -0.0957,3.931654 -1.73809,5.626137 -2.75813,2.845663 -4.18899,3.088219 -20.00283,3.390806 l -14.36219,0.274811 z"
       id="path1122"
       transform="matrix(0.26458333,0,0,0.26458333,56.065137,84.57217)" />
    <path
       style="opacity:0.907436;fill:#ffffff;stroke-width:5.29999;stroke-linejoin:round;stroke-opacity:0.212645;paint-order:stroke fill markers"
       d="m 62.719264,125.97549 c -1.884214,-0.2467 -5.511735,-1.16404 -8.06116,-2.03853 C 37.918579,118.19511 24.846849,104.88729 19.32213,87.962771 17.266425,81.665293 16.674951,76.699756 17.018008,68.619233 17.399052,59.643937 18.54646,55.043938 22.350178,47.242384 24.626026,42.574542 26.125657,40.34906 29.678753,36.366632 39.174109,25.723924 47.6206,20.612049 60.273401,17.850536 c 6.664109,-1.454463 18.477491,-1.439252 24.193404,0.03115 17.599555,4.527435 33.305765,18.592188 39.395395,35.27816 6.08048,16.660913 3.06714,36.387671 -7.78582,50.969714 -7.7301,10.38615 -18.191432,17.56065 -29.957893,20.54546 -5.466094,1.38659 -17.593781,2.06062 -23.399223,1.30047 z m 2.247667,-17.48767 c 1.492589,-0.78214 3.672868,-4.62654 3.346983,-5.90159 -0.494429,-1.93448 -3.412204,-4.975244 -5.405134,-5.632969 -2.68181,-0.885079 -5.708492,0.06507 -6.774604,2.1267 -1.179509,2.280919 -1.029592,6.415509 0.293614,8.097699 1.762613,2.2408 5.63065,2.83427 8.539141,1.31016 z m 29.350783,0.36133 c 1.903266,-0.98422 3.714076,-3.87861 3.714076,-5.93655 0,-1.08911 -0.616583,-2.26499 -1.976447,-3.769272 -1.626458,-1.799183 -2.416821,-2.243457 -4.463298,-2.508876 -2.332081,-0.302459 -2.602686,-0.206694 -4.348184,1.538804 -1.676302,1.676302 -1.861334,2.147674 -1.861334,4.741754 0,3.39153 1.248103,5.37684 3.854288,6.13087 2.450869,0.7091 3.400302,0.67234 5.080899,-0.19673 z M 111.20811,88.544843 V 83.801369 H 84.628784 58.049458 L 57.01491,81.034343 55.980363,78.267316 63.697997,77.876639 C 67.942696,77.66177 80.191059,77.306009 90.91658,77.08606 l 19.50095,-0.399902 0.33955,-2.635263 c 0.18676,-1.449394 0.38297,-7.26015 0.43603,-12.912789 l 0.0965,-10.277527 -31.400375,0.108598 -31.400373,0.108598 v -3.218806 -3.218806 l -8.250457,0.368064 c -4.537752,0.202435 -8.688292,0.602385 -9.223421,0.888778 -1.122163,0.600564 -1.29398,2.723401 -0.287999,3.558291 0.376731,0.312659 1.74048,0.712396 3.030553,0.888304 1.290073,0.175909 2.843688,0.419084 3.452477,0.540389 1.179657,0.235054 0.628679,-1.308975 10.160627,28.473536 2.144056,6.699092 4.131969,12.001731 4.687981,12.504914 1.087621,0.984286 4.427308,1.094751 39.516792,1.30708 l 19.632715,0.118797 z"
       id="path1161"
       transform="matrix(0.26458333,0,0,0.26458333,56.065137,84.57217)" />
    <path
       style="opacity:0.907436;fill:#ffffff;stroke-width:5.29999;stroke-linejoin:round;stroke-opacity:0.212645;paint-order:stroke fill markers"
       d="m 53.055382,67.594501 c -0.13153,-0.21741 -0.6027,-1.625665 -1.047044,-3.129457 -0.706377,-2.390585 -0.711507,-2.814165 -0.04082,-3.370784 1.185902,-0.984212 11.356859,-1.466597 31.70209,-1.50356 l 18.578602,-0.03375 v 4.216421 4.216421 H 77.771369 c -13.462264,0 -24.584458,-0.17788 -24.715987,-0.395289 z"
       id="path1200"
       transform="matrix(0.26458333,0,0,0.26458333,56.065137,84.57217)" />
    <path
       style="opacity:0.907436;fill:#ffffff;stroke-width:5.29999;stroke-linejoin:round;stroke-opacity:0.212645;paint-order:stroke fill markers"
       d="m 195.14124,86.591726 c -0.7658,-0.147498 -1.21116,-0.635495 -1.25726,-1.377619 -0.0393,-0.632067 -0.21714,-5.892685 -0.39529,-11.690264 l -0.3239,-10.541053 -6.45639,-0.147985 -6.4564,-0.147986 v -3.146093 -3.146094 h 16.33863 16.33863 v 3.146094 3.146093 l -6.45639,0.147986 -6.45639,0.147985 -0.29898,11.858684 c -0.16443,6.522277 -0.34231,11.917978 -0.39529,11.990448 -0.13486,0.1845 -2.75858,0.03377 -4.18097,-0.240196 z"
       id="path1239"
       transform="matrix(0.26458333,0,0,0.26458333,56.065137,84.57217)" />
    <path
       style="opacity:0.907436;fill:#ffffff;stroke-width:5.29999;stroke-linejoin:round;stroke-opacity:0.212645;paint-order:stroke fill markers"
       d="m 225.77464,86.489648 c -4.08202,-0.515508 -6.38252,-1.854678 -7.78697,-4.532963 -0.98442,-1.877293 -1.10551,-3.003016 -1.10551,-10.277527 0,-9.510062 0.65249,-11.673865 4.0163,-13.318825 4.39428,-2.148886 22.60514,-2.597292 27.84422,-0.685609 5.15487,1.880956 5.97974,3.689694 6.02612,13.213855 0.051,10.466781 -1.19991,13.694968 -5.80352,14.977191 -2.59517,0.722822 -18.92791,1.162208 -23.19064,0.623878 z m 22.46715,-14.988231 v -8.610583 l -8.30108,0.189528 c -4.56559,0.10424 -10.2509,0.32353 -12.63402,0.48731 l -4.33294,0.297783 -0.30485,1.666878 c -0.16767,0.916783 -0.23382,4.394375 -0.14701,7.727983 l 0.15785,6.061106 1.84468,0.325907 c 1.01458,0.179249 6.76604,0.35713 12.78103,0.39529 l 10.93634,0.06938 z"
       id="path1278"
       transform="matrix(0.26458333,0,0,0.26458333,56.065137,84.57217)" />
    <path
       style="opacity:0.907436;fill:#ffffff;stroke-width:5.29999;stroke-linejoin:round;stroke-opacity:0.212645;paint-order:stroke fill markers"
       d="m 259.6597,86.184086 c -0.76532,-0.765315 -0.87686,-2.37116 -0.87686,-12.624328 0,-6.461112 0.15083,-12.847861 0.33517,-14.192775 l 0.33516,-2.445298 h 15.12215 15.12215 l 2.44732,3.020416 c 1.34602,1.661229 2.59052,3.672455 2.76555,4.469391 0.46854,2.133224 -0.68903,6.946558 -2.15194,8.94808 -2.68096,3.668049 -2.68056,3.600565 -0.0486,8.096701 2.71371,4.635847 2.60039,5.507412 -0.71608,5.507412 -2.58109,0 -4.13254,-1.275865 -6.89228,-5.667982 -1.22871,-1.955491 -2.49451,-3.729688 -2.8129,-3.942658 -0.31839,-0.21297 -4.31437,-0.390851 -8.87997,-0.395289 l -8.30107,-0.0081 -0.0126,2.5035 c -0.0118,2.356836 -0.68854,6.279087 -1.16564,6.756186 -0.11895,0.118955 -0.93098,0.35922 -1.8045,0.533924 -1.10772,0.221546 -1.85349,0.05236 -2.46506,-0.559209 z m 28.14945,-16.130183 c 0.25987,-0.410564 0.47613,-2.233442 0.48057,-4.050839 l 0.008,-3.304358 -11.46339,0.142042 -11.4634,0.142042 -0.15521,4.155653 -0.15521,4.155653 11.13803,-0.246856 c 8.83366,-0.195782 11.23579,-0.401296 11.61054,-0.993337 z"
       id="path1317"
       transform="matrix(0.26458333,0,0,0.26458333,56.065137,84.57217)" />
    <path
       style="opacity:0.907436;fill:#ffffff;stroke-width:5.29999;stroke-linejoin:round;stroke-opacity:0.212645;paint-order:stroke fill markers;fill-opacity:1"
       d="m 304.89995,85.947152 c -5.2152,-1.258585 -5.79758,-2.701106 -5.79758,-14.360375 0,-10.214697 0.13322,-10.703667 3.6275,-13.314895 1.3649,-1.019966 2.28177,-1.096816 14.93662,-1.251941 10.70024,-0.131166 13.57306,-0.0224 13.9215,0.527052 0.24146,0.380778 0.44266,1.679021 0.4471,2.884984 l 0.008,2.192661 -4.34818,0.292582 c -2.39151,0.16092 -8.10692,0.42348 -12.70092,0.583467 -4.59401,0.159988 -8.80384,0.532308 -9.35519,0.82738 -1.25735,0.672917 -1.30887,2.88372 -0.0801,3.437797 0.50728,0.228747 6.19945,0.514168 12.64926,0.634267 l 11.72692,0.218362 v 3.052819 3.05282 l -11.99045,0.3562 c -6.59474,0.195911 -12.28691,0.452043 -12.64926,0.569183 -1.08992,0.352348 -0.77277,2.783255 0.44838,3.436796 0.64382,0.34456 5.0003,0.691019 10.40929,0.827821 5.11615,0.129396 10.78443,0.364316 12.59617,0.522043 l 3.29408,0.286779 v 2.023153 c 0,3.906079 0.75479,3.696563 -13.10094,3.636576 -6.85361,-0.02967 -13.17263,-0.225662 -14.04227,-0.435531 z"
       id="path1356"
       transform="matrix(0.26458333,0,0,0.26458333,56.065137,84.57217)" />
    <path
       style="opacity:0.907436;fill:#ffffff;fill-opacity:1;stroke-width:5.29999;stroke-linejoin:round;stroke-opacity:0.212645;paint-order:stroke fill markers"
       d="m 303.22681,85.14054 c -3.3078,-1.438821 -3.59739,-2.530393 -3.59739,-13.560124 v -9.8967 l 1.98436,-1.985726 1.98436,-1.985726 13.88775,-0.155944 13.88776,-0.155944 0.35507,2.220493 c 0.21854,1.366666 0.14203,2.352164 -0.19899,2.562921 -0.30473,0.188335 -6.14756,0.613025 -12.98405,0.943754 -8.10506,0.392098 -12.69662,0.822602 -13.19628,1.237278 -0.42145,0.349773 -0.69499,1.246378 -0.60786,1.992456 0.20552,1.759905 1.98828,2.088707 11.54449,2.129191 3.94331,0.01671 8.62749,0.182747 10.40929,0.368982 l 3.23963,0.338608 v 2.488542 2.488542 l -2.4453,0.335166 c -1.34491,0.184341 -5.0804,0.336587 -8.30108,0.338324 -3.22068,0.0017 -7.81246,0.155478 -10.20396,0.341645 -4.30145,0.334847 -4.34819,0.353947 -4.34819,1.776991 0,0.791177 0.33877,1.719657 0.75282,2.063288 0.48899,0.405825 5.06054,0.806184 13.04456,1.142391 6.76045,0.284683 12.5882,0.618062 12.95054,0.740841 0.79861,0.270601 0.86422,2.577091 0.11322,3.980334 -0.51729,0.96658 -1.22122,1.018387 -13.5716,0.998827 -9.88276,-0.01565 -13.42975,-0.196248 -14.69915,-0.74841 z"
       id="path1629"
       transform="matrix(0.26458333,0,0,0.26458333,56.065137,84.57217)" />
    <path
       style="opacity:0.907436;fill:#ffffff;fill-opacity:1;stroke-width:5.29999;stroke-linejoin:round;stroke-opacity:0.212645;paint-order:stroke fill markers"
       d="m 304.11771,85.3699 c -3.15785,-0.742503 -4.06915,-2.386246 -4.4986,-8.114286 -0.20722,-2.76402 -0.28111,-7.407224 -0.16419,-10.318231 l 0.21259,-5.292738 1.96531,-1.966191 1.96532,-1.96619 13.8861,-0.155935 13.8861,-0.155935 0.31663,1.951183 c 0.17415,1.073151 0.19863,2.142124 0.0544,2.375495 -0.41043,0.664085 -2.86474,0.918407 -14.32637,1.484542 -5.8714,0.290011 -11.16273,0.788172 -11.75851,1.107025 -0.7619,0.407756 -1.03478,0.998433 -0.91989,1.991177 0.21307,1.841017 1.32605,2.064396 10.7044,2.148415 4.05831,0.03636 8.97966,0.217302 10.93634,0.402099 l 3.55761,0.335994 v 2.48741 2.487409 l -2.4453,0.335166 c -1.34491,0.184341 -5.55475,0.360907 -9.35518,0.392368 -3.80044,0.03146 -8.33293,0.209342 -10.0722,0.39529 -2.90538,0.310617 -3.17519,0.44881 -3.32073,1.700831 -0.0871,0.74951 0.1797,1.643354 0.59295,1.986321 0.48168,0.399759 4.98405,0.814631 12.54415,1.155882 14.39086,0.64958 14.16452,0.608311 14.16452,2.582657 0,3.099236 -0.42523,3.195359 -13.87278,3.135972 -6.71898,-0.02967 -13.04268,-0.248251 -14.05267,-0.48573 z"
       id="path1668"
       transform="matrix(0.26458333,0,0,0.26458333,56.065137,84.57217)" />
    <path
       style="opacity:0.907436;fill:#ffffff;fill-opacity:1;stroke-width:5.29999;stroke-linejoin:round;stroke-opacity:0.212645;paint-order:stroke fill markers"
       d="m 289.87906,86.04349 c -1.19454,-0.598692 -2.83117,-2.363954 -4.64416,-5.009147 l -2.79958,-4.084658 h -8.626 -8.62599 l -0.32266,3.030552 c -0.59629,5.600646 -0.86828,6.17304 -3.01923,6.353779 -1.5971,0.134201 -1.98755,-0.04076 -2.3523,-1.054106 -0.48633,-1.351129 -0.39363,-25.798365 0.10377,-27.365533 0.29864,-0.940922 1.08071,-0.992692 14.99596,-0.992692 h 14.68089 l 1.93063,2.239973 c 1.06184,1.231986 2.29487,2.935873 2.74005,3.786416 1.26113,2.409459 0.60643,6.437302 -1.74534,10.73764 l -1.97977,3.620125 1.94002,3.529434 c 1.88199,3.423853 2.44803,5.601359 1.45607,5.601359 -0.26617,0 -0.79981,0.119553 -1.18586,0.265674 -0.38606,0.14612 -1.53199,-0.150347 -2.5465,-0.658816 z m -3.42595,-15.371713 c 1.55586,-0.367901 1.58363,-0.434504 1.73601,-4.163198 l 0.15485,-3.789315 h -11.57811 -11.57812 l -0.17189,4.262729 c -0.0946,2.344501 -0.0906,4.34296 0.009,4.44102 0.32166,0.317416 19.79646,-0.365328 21.42848,-0.751236 z"
       id="path1707"
       transform="matrix(0.26458333,0,0,0.26458333,56.065137,84.57217)" />
    <path
       style="opacity:0.907436;fill:#ffffff;fill-opacity:1;stroke-width:5.29999;stroke-linejoin:round;stroke-opacity:0.212645;paint-order:stroke fill markers"
       d="m 223.48957,85.85405 c -5.4311,-1.666049 -6.51268,-4.265713 -6.25706,-15.039356 0.20551,-8.661473 0.66975,-10.307565 3.34651,-11.86591 2.60438,-1.516201 8.72062,-2.162231 18.15763,-1.917905 7.75447,0.200766 8.99277,0.359865 11.23983,1.444123 3.96559,1.913483 4.32642,2.99274 4.32642,12.94063 0,7.378737 -0.13177,8.696369 -1.05411,10.541053 -1.84834,3.696682 -3.35701,4.087413 -16.54878,4.285971 -7.04602,0.106054 -12.08071,-0.04205 -13.21044,-0.388606 z m 24.75222,-14.516076 v -8.774028 l -11.28775,0.375031 c -6.20826,0.206267 -11.95973,0.554464 -12.78103,0.773771 l -1.49327,0.39874 -0.14563,7.698256 c -0.14459,7.643117 -0.13704,7.699904 1.0541,7.928481 0.65986,0.126624 6.47685,0.262524 12.92666,0.302001 l 11.72692,0.07178 z"
       id="path1746"
       transform="matrix(0.26458333,0,0,0.26458333,56.065137,84.57217)" />
    <path
       style="opacity:0.907436;fill:#ffffff;fill-opacity:1;stroke-width:5.29999;stroke-linejoin:round;stroke-opacity:0.212645;paint-order:stroke fill markers"
       d="m 194.27529,85.602947 c -0.17596,-0.458527 -0.32079,-2.41521 -0.32185,-4.348184 -0.001,-1.932975 -0.15622,-6.887218 -0.3448,-11.00943 l -0.34287,-7.49493 -6.37512,-0.147333 -6.37512,-0.147333 -0.15807,-3.030552 -0.15806,-3.030553 h 16.39123 16.39124 l -0.15807,3.030553 -0.15806,3.030552 -6.39245,0.147472 -6.39244,0.147472 -0.38615,11.842976 -0.38615,11.842975 h -2.25667 c -1.5716,0 -2.3538,-0.25309 -2.57659,-0.833685 z"
       id="path1785"
       transform="matrix(0.26458333,0,0,0.26458333,56.065137,84.57217)" />
    <path
       style="opacity:0.907436;fill:#ffffff;fill-opacity:1;stroke-width:5.29999;stroke-linejoin:round;stroke-opacity:0.212645;paint-order:stroke fill markers"
       d="m 144.41242,84.709689 c 0,-4.152207 -0.40542,-4.029957 15.13186,-4.562876 7.59783,-0.260601 14.06081,-0.626213 14.36219,-0.812473 0.70175,-0.433705 0.71391,-2.746931 0.0167,-3.177826 -0.29219,-0.180581 -5.74328,-0.782697 -12.11353,-1.338036 -6.37859,-0.556066 -12.35577,-1.339189 -13.30389,-1.743061 -3.74242,-1.594165 -5.42774,-5.189543 -4.48381,-9.565574 0.53367,-2.474108 2.08582,-4.327655 4.47695,-5.346287 1.40132,-0.596967 17.78569,-1.714886 25.82376,-1.761977 1.02147,-0.006 1.18487,0.267049 1.17867,1.9695 -0.0153,4.194786 -0.17806,4.346882 -4.66598,4.359462 -6.91934,0.0194 -18.94259,0.951363 -20.07211,1.555866 -1.3212,0.707084 -1.41941,2.478628 -0.15795,2.849186 1.81953,0.534494 4.76198,0.870675 14.54994,1.662356 6.44142,0.521003 10.48306,1.085583 11.4867,1.604584 2.43732,1.260385 3.60582,3.666334 3.6081,7.429056 0.002,2.768472 -0.21049,3.506132 -1.42281,4.946902 -2.6548,3.15505 -4.07753,3.390411 -23.74198,3.927632 l -10.67282,0.291574 z"
       id="path1824"
       transform="matrix(0.26458333,0,0,0.26458333,56.065137,84.57217)" />
    <path
       style="opacity:0.907436;fill:#ffffff;fill-opacity:1;stroke-width:5.29999;stroke-linejoin:round;stroke-opacity:0.212645;paint-order:stroke fill markers"
       d="M 59.029895,124.90373 C 39.443434,120.02046 23.768078,104.31736 18.634552,84.436894 c -1.233099,-4.775386 -1.304696,-5.74618 -1.07695,-14.60242 0.280281,-10.899147 1.026513,-14.307198 4.792037,-21.885272 2.851634,-5.738881 4.063019,-7.51179 8.527574,-12.480423 10.438799,-11.61741 22.2006,-17.313556 37.915594,-18.362216 13.071796,-0.872279 24.609353,2.636681 35.397013,10.765423 10.01597,7.547264 17.01142,17.379275 20.56066,28.897739 1.32273,4.292724 1.42864,5.326612 1.44628,14.118854 0.0168,8.384175 -0.12539,10.007702 -1.22339,13.966895 -1.44904,5.224952 -4.9088,12.878985 -7.78939,17.232486 -2.66431,4.02661 -8.55776,10.21119 -12.82756,13.4612 -4.07084,3.09858 -12.718848,7.42489 -17.089337,8.54923 -8.144413,2.0952 -21.53215,2.47703 -28.237188,0.80534 z m 5.20193,-15.8589 c 1.827541,-0.63708 4.285018,-4.20129 4.285018,-6.21479 0,-0.66108 -1.016551,-2.24614 -2.336397,-3.643061 -2.247404,-2.378631 -2.449895,-2.47282 -5.31616,-2.47282 -2.611406,0 -3.137009,0.182808 -4.251762,1.478783 -1.028956,1.196235 -1.271997,2.063818 -1.271997,4.540638 0,5.51389 3.681778,8.1273 8.891298,6.31125 z m 30.840628,-0.51853 c 1.805013,-1.41982 2.959337,-3.67992 2.959337,-5.79421 0,-1.27696 -0.548893,-2.22557 -2.302387,-3.97907 -2.010158,-2.010158 -2.592314,-2.302388 -4.586618,-2.302388 -1.855304,0 -2.610597,0.316321 -4.022244,1.68455 -1.531931,1.484802 -1.738014,2.013068 -1.738014,4.455148 0,1.52383 0.268702,3.36034 0.597119,4.08113 1.278234,2.80543 6.523963,3.8755 9.092807,1.85484 z M 111.20811,88.544843 V 83.801369 H 84.719558 58.231008 l -0.89338,-2.484389 c -0.491359,-1.36641 -0.809559,-2.568206 -0.70711,-2.670655 0.257992,-0.257992 21.840025,-1.066038 39.394293,-1.474951 l 14.595169,-0.339986 0.27263,-2.707875 c 0.14995,-1.489335 0.38715,-7.392061 0.52711,-13.11717 l 0.25447,-10.40929 H 80.081521 48.488842 v -3.19423 -3.19423 l -3.557605,0.283736 c -1.956683,0.156054 -5.810755,0.429184 -8.564605,0.606954 -2.75385,0.17777 -5.303467,0.567838 -5.665816,0.866818 -0.362349,0.29898 -0.658816,1.207688 -0.658816,2.01935 0,1.606773 1.131163,2.182784 5.664259,2.884352 l 2.238416,0.34643 5.543274,16.951384 c 3.048801,9.323261 6.150671,18.544917 6.893046,20.492577 1.819787,4.77429 -0.803404,4.429866 34.606242,4.543773 l 26.220873,0.08435 z"
       id="path1863"
       transform="matrix(0.26458333,0,0,0.26458333,56.065137,84.57217)" />
    <path
       style="opacity:0.907436;fill:#ffffff;fill-opacity:1;stroke-width:5.29999;stroke-linejoin:round;stroke-opacity:0.212645;paint-order:stroke fill markers"
       d="M 64.091484,67.478925 53.077968,67.199211 52.31805,64.590889 c -0.688177,-2.362079 -0.677625,-2.668498 0.111773,-3.245719 1.173648,-0.858193 8.027057,-1.185895 30.71273,-1.468559 l 19.105657,-0.238058 v 4.175619 4.175618 L 88.676606,67.874214 C 81.212223,67.810647 70.148918,67.632767 64.091484,67.478925 Z"
       id="path1902"
       transform="matrix(0.26458333,0,0,0.26458333,56.065137,84.57217)" />
  </g>
</svg>
