<?xml version="1.0" encoding="UTF-8" standalone="no"?>
<!-- Created with Inkscape (http://www.inkscape.org/) -->

<svg
   width="211.29694mm"
   height="178.64478mm"
   viewBox="0 0 211.29694 178.64478"
   version="1.1"
   id="svg5"
   inkscape:version="1.1.1 (1:1.1+202109281949+c3084ef5ed)"
   sodipodi:docname="shopcart.svg"
   xmlns:inkscape="http://www.inkscape.org/namespaces/inkscape"
   xmlns:sodipodi="http://sodipodi.sourceforge.net/DTD/sodipodi-0.dtd"
   xmlns="http://www.w3.org/2000/svg"
   xmlns:svg="http://www.w3.org/2000/svg">
  <sodipodi:namedview
     id="namedview7"
     pagecolor="#505050"
     bordercolor="#ffffff"
     borderopacity="1"
     inkscape:pageshadow="0"
     inkscape:pageopacity="0"
     inkscape:pagecheckerboard="1"
     inkscape:document-units="mm"
     showgrid="false"
     fit-margin-top="0"
     fit-margin-left="0"
     fit-margin-right="0"
     fit-margin-bottom="0"
     inkscape:zoom="0.67081229"
     inkscape:cx="442.00144"
     inkscape:cy="509.82966"
     inkscape:window-width="1920"
     inkscape:window-height="1025"
     inkscape:window-x="0"
     inkscape:window-y="28"
     inkscape:window-maximized="1"
     inkscape:current-layer="layer1" />
  <defs
     id="defs2" />
  <g
     inkscape:label="Layer 1"
     inkscape:groupmode="layer"
     id="layer1"
     transform="translate(11.990524,-13.576411)">
    <path
       style="fill:#ffffff;stroke-width:1"
       d="m 51.139754,192.15421 c -0.29104,-0.0667 -1.18401,-0.25021 -1.98438,-0.40771 -2.6923,-0.52979 -5.16283,-1.93886 -7.54367,-4.30255 -2.50736,-2.48929 -3.84353,-4.88294 -4.52485,-8.10588 -0.486,-2.29904 -0.35968,-5.99183 0.27405,-8.01154 1.66394,-5.30291 6.52735,-9.88913 11.76413,-11.09364 1.48426,-0.3414 1.48209,-0.34182 -2.4832,-0.4825 -3.62672,-0.12868 -4.08276,-0.20081 -5.29167,-0.83704 -2.56657,-1.35074 -4.32142,-3.87381 -4.55124,-6.54363 -0.0971,-1.12833 0.0399,-1.99697 0.58393,-3.70115 0.6022,-1.8865 3.68361,-8.24353 6.3611,-13.12316 l 0.72815,-1.32703 -3.76218,-17.45838 c -5.7715,-26.782577 -7.54909,-35.035677 -13.33418,-61.908387 l -5.35413,-24.87083 -14.0159302,-0.13229 -14.01593,-0.1323 -1.32292,-0.70533 c -1.6724,-0.89166 -3.3870998,-2.65186 -4.0811498,-4.18946 -0.81503,-1.8056 -0.75837,-4.76773 0.12512,-6.54065 0.80691,-1.61927 2.6077798,-3.34736 4.3064298,-4.1324 1.22915,-0.56806 1.35191,-0.57174 19.0964802,-0.57174 20.11767,0 19.44001,-0.0624 21.79239,2.0082 1.9477,1.71444 2.95031,4.37526 4.15266,11.02076 l 0.58609,3.23938 77.420356,0.0679 77.42036,0.0679 1.33971,0.70705 c 1.60108,0.845 3.14021,2.47836 3.91562,4.15536 l 0.56551,1.22301 v 34.39584 34.395827 l -0.57174,1.23711 c -0.8149,1.76325 -2.51764,3.49878 -4.10096,4.1799 -1.38136,0.59425 -2.01441,0.67854 -26.68043,3.55248 -4.43838,0.51714 -11.64166,1.35685 -16.00729,1.86602 -4.36562,0.50918 -13.59297,1.58539 -20.50521,2.39157 -6.91224,0.80619 -16.61583,1.93932 -21.56354,2.51807 -4.94771,0.57875 -15.663326,1.82863 -23.812496,2.77752 -23.59621,2.74754 -26.45314,3.08949 -26.54595,3.17731 -0.0482,0.0456 0.29115,1.7302 0.7541,3.74355 1.23627,5.37653 1.2339,5.39148 -2.07759,13.1123 -0.0485,0.1131 26.63224,0.20563 59.290546,0.20563 h 59.37875 l 1.61323,0.80614 c 2.82453,1.41144 4.54937,4.06949 4.55412,7.01808 0.004,2.48724 -0.62768,3.95957 -2.50688,5.84304 -2.11354,2.11835 -3.21257,2.46433 -7.92346,2.49437 -3.45729,0.022 -3.45753,0.0221 -2.00249,0.37675 4.33475,1.05662 8.11091,3.91858 10.46071,7.92822 1.19316,2.03597 1.74685,4.0832 1.89939,7.0229 0.26853,5.17507 -1.26847,9.04097 -5.0009,12.57833 -3.42193,3.24308 -6.48621,4.45868 -11.19566,4.44129 -2.45395,-0.009 -3.24081,-0.12339 -5.017,-0.72896 -4.96715,-1.69351 -8.68376,-5.42203 -10.354,-10.38717 -0.55594,-1.65265 -0.70174,-2.6057 -0.72161,-4.71695 -0.0463,-4.91901 1.29736,-8.24322 4.70708,-11.64542 2.40118,-2.39588 4.41173,-3.58941 7.33785,-4.35601 1.91897,-0.50274 1.59039,-0.50589 -52.70545,-0.50628 l -54.636446,-2.7e-4 1.98438,0.59771 c 3.11071,0.93697 4.69593,1.89183 7.03621,4.2383 3.52204,3.53136 5.09137,7.58863 4.77056,12.33356 -0.29825,4.41113 -1.61046,7.27406 -4.79156,10.45403 -2.25911,2.2583 -4.35731,3.5249 -7.01722,4.23604 -1.52111,0.40668 -5.30705,0.71568 -6.2157,0.50731 z"
       id="path854" />
  </g>
</svg>
